<svg xmlns="http://www.w3.org/2000/svg" width="48" height="48" viewBox="0 0 48 48">
    <defs>
        <filter id="ym34103jja" color-interpolation-filters="auto">
            <feColorMatrix in="SourceGraphic" values="0 0 0 0 1.000000 0 0 0 0 1.000000 0 0 0 0 1.000000 0 0 0 1.000000 0"/>
        </filter>
    </defs>
    <g fill="none" fill-rule="evenodd">
        <g>
            <g filter="url(#ym34103jja)" transform="translate(-71.000000, -681.000000) translate(20.000000, 644.000000)">
                <g>
                    <path d="M0 0H48V48H0z" transform="translate(51.000000, 37.000000)"/>
                    <path fill="#000" fill-rule="nonzero" d="M24 25.5c3.26 0 6.14.78 8.48 1.8 2.16.96 3.52 3.12 3.52 5.46V34c0 1.1-.9 2-2 2H14c-1.1 0-2-.9-2-2v-1.22c0-2.36 1.36-4.52 3.52-5.46 2.34-1.04 5.22-1.82 8.48-1.82zM8 26c2.2 0 4-1.8 4-4s-1.8-4-4-4-4 1.8-4 4 1.8 4 4 4zm2.26 2.2C9.52 28.08 8.78 28 8 28c-1.98 0-3.86.42-5.56 1.16C.96 29.8 0 31.24 0 32.86V34c0 1.1.9 2 2 2h7v-3.22c0-1.66.46-3.22 1.26-4.58zM40 26c2.2 0 4-1.8 4-4s-1.8-4-4-4-4 1.8-4 4 1.8 4 4 4zm8 6.86c0-1.62-.96-3.06-2.44-3.7C43.86 28.42 41.98 28 40 28c-.78 0-1.52.08-2.26.2.8 1.36 1.26 2.92 1.26 4.58V36h7c1.1 0 2-.9 2-2v-1.14zM24 12c3.32 0 6 2.68 6 6s-2.68 6-6 6-6-2.68-6-6 2.68-6 6-6z" transform="translate(51.000000, 37.000000)"/>
                </g>
            </g>
        </g>
    </g>
</svg>
