<svg width="200" height="164" viewBox="0 0 200 164" fill="none" xmlns="http://www.w3.org/2000/svg">
<path d="M0 163.636H36.3636V65.4545H0V163.636ZM200 73.6364C200 64.6364 191.818 57.2727 181.818 57.2727H124.455L133.091 19.8818L133.364 17.2636C133.364 13.9091 131.818 10.8 129.364 8.59091L119.727 0L59.9091 53.9182C56.5455 56.8636 54.5455 60.9545 54.5455 65.4545V147.273C54.5455 156.273 62.7273 163.636 72.7273 163.636H154.545C162.091 163.636 168.545 159.545 171.273 153.655L198.727 95.9727C199.545 94.0909 200 92.1273 200 90V73.6364Z" fill="black"/>
</svg>
