<svg width="200" height="127" viewBox="0 0 200 127" fill="none" xmlns="http://www.w3.org/2000/svg">
<path d="M100 0C54.5455 0 15.7273 26.1895 0 63.1579C15.7273 100.126 54.5455 126.316 100 126.316C145.455 126.316 184.273 100.126 200 63.1579C184.273 26.1895 145.455 0 100 0ZM100 105.263C74.9091 105.263 54.5455 86.4 54.5455 63.1579C54.5455 39.9158 74.9091 21.0526 100 21.0526C125.091 21.0526 145.455 39.9158 145.455 63.1579C145.455 86.4 125.091 105.263 100 105.263ZM100 37.8947C84.9091 37.8947 72.7273 49.1789 72.7273 63.1579C72.7273 77.1368 84.9091 88.4211 100 88.4211C115.091 88.4211 127.273 77.1368 127.273 63.1579C127.273 49.1789 115.091 37.8947 100 37.8947Z" fill="black"/>
</svg>
