<svg xmlns="http://www.w3.org/2000/svg" width="20" height="20" viewBox="0 0 20 20">
    <defs>
        <filter id="4zsbrbanka" color-interpolation-filters="auto">
            <feColorMatrix in="SourceGraphic" values="0 0 0 0 0.066667 0 0 0 0 0.066667 0 0 0 0 0.066667 0 0 0 1.000000 0"/>
        </filter>
    </defs>
    <g fill="none" fill-rule="evenodd">
        <g>
            <g filter="url(#4zsbrbanka)" transform="translate(-40.000000, -470.000000) translate(20.000000, 450.000000)">
                <g>
                    <path d="M0 0H20V20H0z" transform="translate(20.000000, 20.000000)"/>
                    <g fill="#000" fill-rule="nonzero">
                        <path d="M17.14 3.755h-.427c.108-1.419 1.393-1.18 1.393-2.188 0-.921-.92-1.005-.92-1.005C17.139.347 16.849 0 16.328 0c-.52 0-.81.347-.86.562 0 0-.919.084-.919 1.005 0 1.008 1.285.77 1.393 2.188h-3.355c.108-1.419 1.393-1.18 1.393-2.188 0-.921-.92-1.005-.92-1.005C13.011.347 12.72 0 12.2 0c-.52 0-.81.347-.859.562 0 0-.92.084-.92 1.005 0 1.008 1.286.77 1.394 2.188H8.458c.108-1.419 1.394-1.18 1.394-2.188 0-.921-.92-1.005-.92-1.005C8.883.347 8.592 0 8.072 0s-.81.347-.859.562c0 0-.92.084-.92 1.005 0 1.008 1.285.77 1.394 2.188H4.33c.108-1.419 1.393-1.18 1.393-2.188 0-.921-.92-1.005-.92-1.005C4.756.347 4.465 0 3.944 0c-.52 0-.81.347-.858.562 0 0-.92.084-.92 1.005 0 1.008 1.285.77 1.393 2.188H2.02c-.42 0-.78.297-.854.706L.813 6.405C.796 6.496.73 6.57.64 6.6l-.468.15c-.125.04-.197.17-.165.296l.791 3.113c.033.13.166.206.299.179 2.344-.486 3.392.5 3.943 1.278.254.359.728.488 1.125.294 1.697-.824 5.778-2.812 7.075-3.474 1.441-.735 1.636.55 3.145.89 1.737.391 3.506-.821 3.61-2.578.095-1.636-1.22-2.993-2.856-2.993z" transform="translate(20.000000, 20.000000) translate(0.000000, 4.000000)"/>
                    </g>
                </g>
            </g>
        </g>
    </g>
</svg>
