<svg xmlns="http://www.w3.org/2000/svg" width="32" height="32" viewBox="0 0 32 32">
    <defs>
        <filter id="eo15ryc2ya" color-interpolation-filters="auto">
            <feColorMatrix in="SourceGraphic" values="0 0 0 0 0.600000 0 0 0 0 0.600000 0 0 0 0 0.600000 0 0 0 1.000000 0"/>
        </filter>
    </defs>
    <g fill="none" fill-rule="evenodd">
        <g>
            <g filter="url(#eo15ryc2ya)" transform="translate(-308.000000, -374.000000) translate(0.000000, 350.000000)">
                <g>
                    <path d="M0 0H32V32H0z" transform="translate(308.000000, 24.000000)"/>
                    <g fill="#000" fill-rule="nonzero">
                        <g>
                            <path d="M9.6 23.565c1.855.263 3.727.409 5.603.435V13.124c-1.876-.025-3.747-.168-5.604-.427v10.868zM16.804 24c1.875-.026 3.747-.172 5.603-.435V12.689c-1.856.26-3.728.402-5.603.427V24zM1.594 19.354c0 1.857 2.69 3.178 6.404 3.931V12.41c-2.641-.512-4.955-1.32-6.404-2.501v9.446zM24.008 23.285c3.714-.777 6.404-2.074 6.404-3.93V9.93c-1.45 1.181-3.763 1.989-6.404 2.502v10.852zM31.869.345c-.247-.352-.74-.445-1.105-.21l-10.31 6.658c-.13.085-.284.13-.44.132-.358.006-.676-.219-.78-.55-.105-.333.03-.691.331-.88l4.003-2.586c-2.496-.442-5.028-.657-7.565-.645-2.537-.012-5.069.203-7.565.645l4.003 2.587c.299.187.435.544.333.875-.102.33-.417.556-.773.554-.16 0-.316-.046-.449-.132L1.242.128C.875-.107.382-.01.137.345.018.516-.026.725.015.928c.04.203.162.382.339.497L4.42 4.05c-1.737.73-2.826 1.732-2.826 2.874 0 3.06 7.245 4.661 14.409 4.661 7.164 0 14.409-1.6 14.409-4.661 0-1.18-1.089-2.144-2.826-2.882l4.058-2.626c.366-.237.466-.715.225-1.072z" transform="translate(308.000000, 24.000000) translate(0.000000, 4.000000)"/>
                        </g>
                    </g>
                </g>
            </g>
        </g>
    </g>
</svg>
