<svg xmlns="http://www.w3.org/2000/svg" width="20" height="20" viewBox="0 0 20 20">
    <defs>
        <filter id="4b7en349za" color-interpolation-filters="auto">
            <feColorMatrix in="SourceGraphic" values="0 0 0 0 0.066667 0 0 0 0 0.066667 0 0 0 0 0.066667 0 0 0 1.000000 0"/>
        </filter>
    </defs>
    <g fill="none" fill-rule="evenodd">
        <g>
            <g filter="url(#4b7en349za)" transform="translate(-40.000000, -550.000000) translate(20.000000, 530.000000)">
                <g>
                    <path d="M0 0H20V20H0z" transform="translate(20.000000, 20.000000)"/>
                    <g fill="#000" fill-rule="nonzero">
                        <g>
                            <path d="M6 14.728c1.16.165 2.33.255 3.502.272V8.203c-1.172-.016-2.342-.105-3.503-.267v6.792zM10.502 15c1.172-.017 2.342-.107 3.502-.272V7.931c-1.16.162-2.33.251-3.502.267V15zM.996 12.097c0 1.16 1.681 1.985 4.003 2.456V7.756C3.348 7.436 1.902 6.93.996 6.193v5.904zM15.005 14.553c2.321-.485 4.002-1.296 4.002-2.456v-5.89c-.905.738-2.351 1.243-4.002 1.563v6.783zM19.918.216c-.154-.22-.462-.279-.69-.131l-6.444 4.16c-.082.054-.178.082-.276.083-.223.004-.422-.137-.487-.344-.065-.207.02-.432.207-.55l2.502-1.616c-1.56-.276-3.143-.41-4.728-.403-1.585-.008-3.168.127-4.728.403l2.502 1.617c.186.117.271.34.207.547-.063.206-.26.348-.483.346-.1 0-.197-.028-.28-.082L.776.08C.546-.067.24-.006.086.216.01.322-.016.454.009.58.035.707.111.82.221.89l2.542 1.642C1.677 2.988.996 3.614.996 4.328c0 1.913 4.528 2.913 9.006 2.913 4.478 0 9.005-1 9.005-2.913 0-.738-.68-1.34-1.766-1.801L19.778.886c.228-.148.29-.448.14-.67z" transform="translate(20.000000, 20.000000) translate(0.000000, 2.500000)"/>
                        </g>
                    </g>
                </g>
            </g>
        </g>
    </g>
</svg>
