<svg xmlns="http://www.w3.org/2000/svg" width="20" height="20" viewBox="0 0 20 20">
    <defs>
        <filter id="j92543543a" color-interpolation-filters="auto">
            <feColorMatrix in="SourceGraphic" values="0 0 0 0 0.066667 0 0 0 0 0.066667 0 0 0 0 0.066667 0 0 0 1.000000 0"/>
        </filter>
    </defs>
    <g fill="none" fill-rule="evenodd">
        <g>
            <g filter="url(#j92543543a)" transform="translate(-40.000000, -390.000000) translate(20.000000, 370.000000)">
                <g fill="#000">
                    <path d="M9.95 8.626c-.444-.444-1.033-.705-1.634-.731-.63-.028-1.22.2-1.646.626 0 0-1.138 1.138-1.688 1.684-.047.047-.11.07-.173.066-1.296-.083-2.572.345-3.514 1.286-1.815 1.816-1.718 4.9.264 6.884 1.983 1.982 5.068 2.079 6.884.264.941-.942 1.37-2.219 1.284-3.512-.005-.066.019-.13.065-.176l1.687-1.687c.426-.426.654-1.017.626-1.646-.026-.601-.287-1.19-.73-1.633L9.948 8.626zM3.04 15.058l1.9 1.9c.125.125.326.125.45 0 .125-.123.125-.325 0-.449l-1.9-1.9c-.124-.125-.326-.125-.45 0-.124.124-.124.325 0 .45zm5.002-3.101c-.703-.703-1.844-.703-2.547 0-.703.703-.703 1.844 0 2.547.703.703 1.844.703 2.547 0 .703-.703.703-1.844 0-2.547zm-.45.45c.455.454.455 1.192 0 1.647-.454.455-1.192.455-1.647 0-.455-.455-.455-1.193 0-1.647.455-.455 1.193-.455 1.647 0zm7.708-9.312c.008-.009.02-.013.032-.01.012.001.022.008.028.02.077.15.178.29.303.415l.816.816c.125.125.265.226.416.303.01.006.018.016.02.028.002.012-.002.023-.01.032l-4.928 4.928c-.007.007-.017.01-.027.01-.01 0-.02-.003-.026-.01l-1.552-1.552c-.007-.007-.01-.016-.01-.026 0-.01.003-.02.01-.027l4.928-4.927zM18.466.28c-.2-.2-.481-.302-.765-.276-.283.026-.54.177-.701.412l-.952 1.389c-.26.38-.213.892.113 1.218l.816.816c.326.326.838.373 1.218.113L19.584 3c.235-.16.386-.418.412-.701.026-.284-.075-.564-.276-.765L18.466.28z" transform="translate(20.000000, 20.000000)"/>
                </g>
            </g>
        </g>
    </g>
</svg>
