<svg xmlns="http://www.w3.org/2000/svg" width="32" height="32" viewBox="0 0 32 32">
    <defs>
        <filter id="lbo7vmwdaa" color-interpolation-filters="auto">
            <feColorMatrix in="SourceGraphic" values="0 0 0 0 0.600000 0 0 0 0 0.600000 0 0 0 0 0.600000 0 0 0 1.000000 0"/>
        </filter>
    </defs>
    <g fill="none" fill-rule="evenodd">
        <g>
            <g filter="url(#lbo7vmwdaa)" transform="translate(-308.000000, -214.000000) translate(0.000000, 190.000000)">
                <g>
                    <path fill="#000" fill-rule="nonzero" d="M30.994.918s-.01-.066-.052-.129c-.038-.057-.09-.076-.174-.115-.063-.028-.152-.072-.26-.132-.115-.092-.229-.188-.345-.288-.1-.084-.197-.17-.29-.254-.29.369-.604.75-.945 1.139l-.055-.058.1-.105-.136-.04c.006-.028.01-.061.01-.1 0-.043-.006-.079-.012-.107-.034-.05-.074-.101-.116-.155-.05-.061-.1-.116-.147-.165-.045.01-.103.03-.164.064-.062.034-.109.071-.14.101-.03.033-.062.075-.09.129-.038.067-.058.13-.069.177.101.081.204.161.305.24.029.005.064.01.104.01.055 0 .1-.01.133-.02l.05.142.11-.11.062.062c-.152.172-.307.345-.468.52-.07.073-.136.147-.205.218l-.06-.063.099-.103-.135-.041c.005-.028.008-.06.008-.1.002-.042-.005-.078-.011-.107-.034-.05-.073-.1-.116-.154-.05-.062-.1-.117-.147-.166-.045.01-.102.029-.164.064-.062.034-.108.07-.14.102-.03.033-.061.074-.09.128-.038.067-.058.13-.069.178l.307.24c.028.006.063.01.103.01.054 0 .1-.01.134-.019l.05.139.108-.108.064.064c-.24.252-.477.492-.71.72l-.035-.037.1-.105-.136-.04c.005-.027.01-.061.01-.1 0-.042-.005-.077-.012-.107-.035-.049-.073-.1-.116-.153-.05-.062-.1-.117-.147-.167-.044.011-.102.03-.164.064-.062.034-.109.072-.14.102-.03.032-.061.075-.09.128-.037.068-.059.13-.07.179l.307.239c.029.006.063.01.104.01.054-.001.1-.01.134-.02l.049.14.109-.109.035.036c-.136.132-.27.26-.403.385.018.1.039.287-.024.507-.07.255-.213.417-.287.492L14.596 15.757c-.179.062-.35.12-.47.142-.055.011-.107.016-.114.016-.071.007-.2.018-.347-.02-.145-.038-.243-.106-.313-.159-.066-.048-.184-.135-.278-.291-.02-.035-.077-.131-.11-.271-.048-.2-.021-.373.005-.474.053-.172.11-.344.164-.515.093-.184.131-.347.15-.459.025-.165.06-.394-.049-.63-.066-.144-.167-.25-.208-.29-.07-.069-.132-.11-.152-.123-.056-.038-.187-.114-.432-.152-.386-.06-.714.031-.803.056-.306.091-.509.232-.654.337-.406.29-.632.613-.815.88-.142.206-.316.498-.47.878l-.425 1.351c-.008.022-.015.045-.025.067-.063.16-.196.425-.46.67-.239.219-.488.332-.667.392-.085.03-.172.045-.262.05-.393.05-.81.075-1.252.066-.053 0-.108-.003-.16-.005-.458-.05-1.1-.063-1.839.103-.287.066-1.214.282-2.147 1.007-.362.281-.831.707-1.272 1.31-.433.59-.695 1.152-.856 1.575-.14.437-.28 1.025-.323 1.728-.045.77.043 1.42.144 1.897l.02.077c.118.41.279.864.502 1.347.242.523.636 1.236 1.255 2.014.247.284.522.581.826.883.27.266.534.51.79.732.367.299.801.616 1.307.926.495.305.983.52 1.41.707.035.018.07.03.11.041.96.295 1.787.354 1.787.354.393.028 1.003.068 1.768-.09.163-.032.487-.105.88-.251.2-.073.604-.236 1.068-.517.384-.234 1.357-.84 2.056-2.036.037-.062.211-.364.381-.789.383-.958.405-1.727.417-1.938v-.073l-.036-1.9c-.014-.211-.012-.69.303-1.1.03-.04.157-.2.475-.4.49-.302.766-.277 1.392-.486.269-.089.79-.265 1.339-.65.269-.19.551-.392.802-.76.362-.533.395-1.021.4-1.122.008-.173.016-.386-.097-.621-.01-.024-.166-.34-.45-.473-.101-.047-.219-.073-.219-.073s-.112-.024-.228-.025c-.216 0-.428.116-.678.206-.223.08-.5.177-.832.132-.095-.011-.216-.03-.353-.102 0 0-.317-.171-.483-.604-.028-.075-.042-.147-.042-.147-.005-.027-.012-.066-.015-.12 0 0-.01-.15.015-.29.014-.094.061-.218.115-.359l.111-.113L27.84 5.354c.07-.072.226-.214.475-.286.213-.06.393-.04.49-.024.128-.138.262-.277.402-.416l.054.055-.11.11.141.048c-.01.035-.018.08-.02.134 0 .04.005.075.01.105.08.1.16.203.24.306.048-.012.11-.033.18-.07.052-.03.095-.061.126-.09.032-.031.07-.078.103-.14.033-.062.053-.12.064-.164-.05-.047-.106-.096-.167-.147-.053-.043-.104-.08-.153-.116-.03-.007-.066-.011-.107-.011-.04-.001-.073.004-.1.009l-.04-.136-.105.1-.056-.053c.229-.233.47-.468.726-.705l.077.078-.109.109.14.049c-.009.034-.018.08-.02.133 0 .041.005.075.011.104l.24.306c.048-.011.111-.03.178-.068.053-.03.096-.062.13-.09.029-.032.066-.079.1-.14.034-.063.054-.12.064-.164-.05-.048-.104-.098-.165-.147-.055-.043-.105-.082-.155-.116-.028-.006-.065-.013-.107-.012-.039 0-.072.004-.1.01l-.04-.136-.105.1-.076-.074.21-.192c.18-.164.36-.322.537-.473l.068.067-.11.11.14.048c-.009.035-.018.08-.02.134 0 .04.007.076.011.103l.24.308c.049-.013.111-.032.178-.07.054-.028.096-.061.13-.09.029-.031.066-.078.1-.14.035-.061.054-.12.065-.164-.05-.046-.104-.096-.166-.147-.053-.042-.106-.08-.155-.116-.028-.005-.065-.012-.107-.011-.039 0-.072.003-.1.009l-.04-.136c-.034.035-.07.068-.105.1-.02-.02-.04-.04-.064-.06.388-.331.766-.634 1.132-.91-.042-.048-.114-.126-.205-.224-.27-.296-.303-.335-.343-.416-.086-.17-.113-.254-.113-.254-.029-.08-.041-.146-.104-.195-.016-.013-.053-.044-.108-.053-.062-.011-.096.011-.119-.011-.02-.02-.006-.048-.014-.104zM2.76 20.795c-.036-.082-.04-.157-.04-.201.005-.035.028-.164.145-.259.081-.067.168-.083.207-.088.019.002.158.015.241.137.069.1.07.232.01.343.194-.034.426-.088.676-.179.226-.082.419-.174.578-.263.182-.116.388-.262.6-.449.217-.19.395-.379.534-.548.157.003.396-.005.677-.063.16-.035.37-.109.787-.26 0 0 .308-.11.96-.255.047-.012.162-.035.286.011.103.039.157.106.167.119.021.028.093.12.073.239-.004.02-.024.142-.134.186-.006.002-.092.035-.17-.01-.084-.049-.124-.166-.083-.282-.201.02-.454.063-.734.16-.397.135-.698.326-.898.478-.13.103-.272.226-.416.372-.122.124-.226.247-.318.361-.105-.016-.253-.025-.426 0-.167.024-.304.072-.399.114-.383.173-.73.316-1.03.43-.23.09-.447.167-.74.166-.147-.001-.27-.022-.353-.041-.04-.022-.141-.087-.2-.218zm4.707.834l2.821 2.819-.542.542-2.821-2.819.542-.542zm5.777 1.911c.046.124.022.24.011.287-.145.65-.256.958-.256.958-.15.417-.225.627-.26.787-.057.281-.065.52-.064.675-.168.14-.358.317-.548.534-.186.213-.332.418-.448.6-.09.16-.183.351-.265.577-.09.251-.144.482-.177.676.109-.061.242-.058.341.01.124.084.137.223.138.242-.004.039-.02.125-.087.206-.096.116-.225.14-.26.145-.044 0-.119-.004-.2-.04-.132-.058-.197-.16-.22-.2-.018-.083-.038-.206-.04-.352 0-.293.077-.51.166-.74.114-.3.257-.647.43-1.03.043-.094.09-.23.115-.398.025-.173.014-.322-.002-.427.115-.09.237-.196.362-.318.146-.143.27-.283.372-.415.152-.2.345-.5.48-.897.097-.279.14-.532.16-.733-.116.04-.234.001-.283-.082-.044-.079-.012-.165-.009-.171.043-.11.165-.13.185-.134.12-.02.21.05.24.074.013.01.08.063.119.166zm-.506-1.938l-1.155 1.153-2.45-2.448 1.154-1.154 2.45 2.449zm2.893-2.892l-1.153 1.152-2.45-2.448 1.153-1.153 2.45 2.449z" transform="translate(308.000000, 24.000000)"/>
                </g>
            </g>
        </g>
    </g>
</svg>
