<svg xmlns="http://www.w3.org/2000/svg" width="20" height="20" viewBox="0 0 20 20">
    <defs>
        <filter id="0wz8pcbrxa" color-interpolation-filters="auto">
            <feColorMatrix in="SourceGraphic" values="0 0 0 0 0.066667 0 0 0 0 0.066667 0 0 0 0 0.066667 0 0 0 1.000000 0"/>
        </filter>
    </defs>
    <g fill="none" fill-rule="evenodd">
        <g>
            <g filter="url(#0wz8pcbrxa)" transform="translate(-40.000000, -310.000000) translate(20.000000, 290.000000)">
                <g>
                    <path d="M0 0H20V20H0z" transform="translate(20.000000, 20.000000)"/>
                    <path fill="#000" fill-rule="nonzero" d="M15.833 2.5H4.167C3.25 2.5 2.5 3.25 2.5 4.167v11.666c0 .917.75 1.667 1.667 1.667h11.666c.917 0 1.667-.75 1.667-1.667V4.167c0-.917-.75-1.667-1.667-1.667zm-4.166 9.583h.208v3.75h-3.75v-3.75h.208c.459 0 .834-.375.834-.833V4.167h1.666v7.083c0 .458.375.833.834.833zm-7.5-7.916h1.666v7.083c0 .458.375.833.834.833h.208v3.75H4.167V4.167zm11.666 11.666h-2.708v-3.75h.208c.459 0 .834-.375.834-.833V4.167h1.666v11.666z" transform="translate(20.000000, 20.000000)"/>
                </g>
            </g>
        </g>
    </g>
</svg>
