<svg xmlns="http://www.w3.org/2000/svg" width="20" height="20" viewBox="0 0 20 20">
    <defs>
        <filter id="h6z392daua" color-interpolation-filters="auto">
            <feColorMatrix in="SourceGraphic" values="0 0 0 0 0.066667 0 0 0 0 0.066667 0 0 0 0 0.066667 0 0 0 1.000000 0"/>
        </filter>
    </defs>
    <g fill="none" fill-rule="evenodd">
        <g>
            <g filter="url(#h6z392daua)" transform="translate(-40.000000, -230.000000) translate(20.000000, 210.000000)">
                <g>
                    <path d="M0 0H20V20H0z" transform="translate(20.000000, 20.000000)"/>
                    <g fill="#000" fill-rule="nonzero">
                        <path d="M5.767 10c1.384 0 2.5-1.117 2.5-2.5v-5c0-1.383-1.116-2.5-2.5-2.5-1.383 0-2.5 1.117-2.5 2.5v5c0 1.383 1.117 2.5 2.5 2.5zm4.925-2.5c-.408 0-.75.3-.816.708-.342 1.959-2.05 3.459-4.109 3.459-2.058 0-3.766-1.5-4.108-3.459C1.592 7.8 1.251 7.5.842 7.5c-.508 0-.908.45-.833.95.408 2.5 2.408 4.458 4.925 4.817V15c0 .458.375.833.833.833.459 0 .834-.375.834-.833v-1.733c2.516-.359 4.516-2.317 4.925-4.817.083-.5-.325-.95-.834-.95z" transform="translate(20.000000, 20.000000) translate(4.166667, 2.500000)"/>
                    </g>
                </g>
            </g>
        </g>
    </g>
</svg>
